# xmcd
#
# Track frame offsets:
#	165
#	13304
#	28908
#	43183
#	57929
#	72684
#	83300
#	97450
#	113547
#	127608
#	142321
#	159580
#
# Disc length: 2324 seconds
#
# Revision: 0
# Processed by: cddbd v1.5PL3 Copyright (c) Steve Scherf et al.
# Submitted via: dBpowerAMP V4.0
#
DISCID=aa09120c
DTITLE=Various Artist - O Passado é Uma Parada - Vol. 15
DYEAR=1900
DGENRE=Easy Listening
TTITLE0=Claudia Barroso/Quem Mandou Voce Errar
TTITLE1=Gregorio Barrios/La Barca
TTITLE2=Reginaldo Rossi/Para de Chorar
TTITLE3=Waldik Soriano/Mundo Cruel
TTITLE4=Wilma Bentivegna/Suave é a Noite
TTITLE5=Joelma/Alguem Me Disse
TTITLE6=Lindomar Castilho/Estrada da Vida
TTITLE7=João Viola/No Céu dos Braços Teus
TTITLE8=Carlos Alberto/O Número Dois
TTITLE9=Gregorio Barrios/Angustia
TTITLE10=Amado Batista/O Julgamento
TTITLE11=Reginaldo Rossi/Poema de Um Jovem Apaixonado
EXTD=
EXTT0=
EXTT1=
EXTT2=
EXTT3=
EXTT4=
EXTT5=
EXTT6=
EXTT7=
EXTT8=
EXTT9=
EXTT10=
EXTT11=
PLAYORDER=
